PathFileType	4	(X/Y/Z)	D:\TRACE\v60_Jaco2_6-2-23\BothDRS_Motion2_2-v60.trc
DataRate	CameraRate	NumFrames	NumMarkers	Units	OrigDataRate	OrigDataStartFrame	OrigNumFrames
100.00	100.00	      35	9	mm	100.00	6563	      7500
Frame#	Time	front left toe			Front right toe			aft left toe			aft right toe			Arm			FL body			FR body			AL Body			AR Body			
		X1	Y1	Z1	X2	Y2	Z2	X3	Y3	Z3	X4	Y4	Z4	X5	Y5	Z5	X6	Y6	Z6	X7	Y7	Z7	X8	Y8	Z8	X9	Y9	Z9	

6563	65.620	-267.54694	17.86273	-243.77948	70.32335	-8.30998	-270.20596	-276.77310	45.64754	376.90048	164.68613	73.35919	340.45877	62.42663	1064.74182	-730.95129	-192.27853	549.86163	-392.69461	-33.54586	540.34442	-405.85126	-113.44933	620.04761	546.74274	43.37092	605.11658	536.98822	
6564	65.630	-265.25940	28.05229	-241.82909	71.40652	-8.15101	-269.64465	-275.39481	45.09406	377.07281	164.13971	85.65148	341.54318	62.57716	1064.91602	-730.22644	-191.48796	549.54626	-392.50568	-32.12487	540.33203	-404.72809	-114.10555	619.93311	547.61554	42.75695	605.16193	538.30811	
6565	65.640	-264.54346	40.83661	-242.87906	72.64507	-7.99835	-269.30557	-274.89264	44.68992	377.13654	165.38124	98.41150	342.26056	62.88293	1064.43701	-729.19202	-190.21062	549.22131	-391.76913	-29.85584	539.98694	-403.78262	-115.54214	619.32513	548.33112	41.91587	604.95313	539.22241	
6566	65.650	-263.02301	51.39261	-242.71608	73.88029	-7.82219	-268.99841	-274.36145	43.95760	377.19519	167.07805	112.26795	343.26907	63.20578	1063.61108	-728.02374	-188.05791	548.39154	-391.23334	-28.32644	539.65759	-403.05032	-115.86617	618.81354	549.27313	41.75975	604.53027	540.41473	
6567	65.660	-262.05212	63.43788	-243.98038	74.94556	-7.61700	-268.83496	-273.36218	42.86539	377.25519	167.50533	125.35624	345.47308	64.49996	1063.07129	-726.88391	-187.07037	547.54022	-390.58130	-26.90434	539.24512	-402.20624	-116.67106	618.03784	550.18475	40.37500	604.25232	541.31537	
6568	65.670	-260.72360	74.79476	-244.61778	77.16663	-7.14867	-268.46146	-272.44501	42.21518	377.40646	166.92462	137.63907	347.74573	66.12165	1063.01990	-725.77216	-185.06053	546.37543	-389.79767	-25.74426	538.87244	-401.45651	-117.16146	617.78937	551.32996	39.75646	604.08093	542.29468	
6569	65.680	-259.28156	85.48119	-244.52904	77.69611	-7.11874	-268.21161	-271.97968	42.09348	377.65671	165.26215	148.80345	350.26822	67.74526	1063.26819	-724.35693	-183.72221	545.57971	-389.19965	-24.17284	538.52954	-400.44257	-117.66144	617.61292	551.69556	39.82608	604.32751	543.08057	
6570	65.690	-258.04523	94.89090	-243.94409	78.00391	-6.92109	-267.97983	-271.21014	42.04820	377.75034	163.13094	158.56599	352.68936	69.05128	1063.34363	-723.35895	-183.24367	545.19055	-388.54333	-22.67472	538.23523	-399.53693	-117.79463	617.54700	552.40088	39.71012	604.88379	543.95465	
6571	65.700	-256.59344	102.96456	-243.02121	78.35490	-6.62726	-267.73886	-270.59000	42.07320	377.82828	161.49620	166.23097	355.40622	70.02056	1063.23645	-722.43811	-181.30919	544.38507	-387.82709	-21.81095	537.88287	-398.17221	-117.81563	617.76129	553.09308	39.50036	605.21143	544.78851	
6572	65.710	-255.54143	107.99559	-241.37730	79.02425	-6.57427	-267.61029	-269.78510	41.59203	377.67603	159.17052	171.57861	358.27136	70.43877	1062.89771	-721.80518	-179.90463	543.83954	-387.20987	-20.27370	537.39905	-397.30759	-117.99962	617.73004	553.90112	39.34930	605.56171	545.87915	
6573	65.720	-254.95439	110.66168	-239.91307	79.82018	-6.51110	-267.44937	-269.32242	41.24110	377.82718	159.13977	174.65689	361.31747	70.88025	1062.47253	-721.14246	-178.14963	543.40814	-386.55377	-18.35677	537.32520	-396.28888	-118.00304	617.53583	554.84656	39.04363	605.75793	547.34814	
6574	65.730	-254.40175	111.01531	-238.19614	80.44405	-6.44962	-267.23996	-268.90918	41.06136	378.07690	158.44067	175.03964	364.54111	70.99725	1061.92883	-720.72894	-176.80383	543.27069	-386.08737	-16.64170	537.29559	-395.10992	-118.27348	617.52472	555.60651	38.76185	605.93323	548.26056	
6575	65.740	-253.48289	108.24757	-236.22983	80.99302	-6.24202	-266.86038	-268.40186	40.92983	378.27487	156.45992	171.77731	367.77075	71.47555	1061.64063	-720.02167	-174.48769	542.89648	-384.87161	-15.00348	537.49353	-393.99051	-118.58817	617.43036	556.48621	38.55927	606.15826	549.15283	
6576	65.750	-252.66234	104.28527	-234.64888	81.46886	-6.12008	-266.74942	-267.76694	40.56957	378.32779	155.66800	167.30548	370.79147	72.24553	1061.75781	-718.93976	-173.06595	542.99719	-384.32269	-12.64020	537.75305	-393.35428	-118.67406	617.31024	557.29913	38.51672	606.42651	550.09845	
6577	65.760	-251.23932	98.55014	-233.40596	82.05788	-6.01107	-266.59515	-267.53098	40.35492	378.41595	153.94695	161.50180	373.68109	73.36713	1062.23157	-717.64398	-170.91568	542.59821	-383.22308	-11.19698	537.88721	-392.47244	-118.59402	617.00067	558.10919	38.41597	606.46600	551.24634	
6578	65.770	-249.43024	91.73817	-232.40858	82.43066	-5.97127	-266.39297	-267.32486	40.00570	378.51138	152.80423	154.51405	376.57123	74.76596	1063.08252	-716.21033	-169.63562	542.17487	-382.56033	-9.75641	537.87512	-391.36081	-118.20630	616.80084	559.36493	38.64862	606.47241	552.20972	
6579	65.780	-247.58368	83.59128	-231.61009	82.71538	-5.82401	-266.15402	-267.09665	39.64756	378.63638	150.98235	146.11873	379.23529	76.52841	1064.01074	-714.32825	-168.30013	542.06970	-381.86758	-8.35958	537.99286	-390.43024	-117.92417	616.45447	560.44769	38.76690	606.20758	553.33386	
6580	65.790	-246.01759	74.76681	-230.78099	83.00626	-5.58333	-265.95398	-267.08850	39.43680	378.61212	150.27089	136.50760	381.57977	78.02353	1064.96448	-712.62659	-167.58345	542.37109	-381.40427	-6.67763	538.38257	-389.28729	-117.91362	615.76733	560.71637	39.03065	606.14581	554.73755	
6581	65.800	-245.18002	66.01630	-229.81853	83.15483	-5.46253	-265.76218	-267.02869	39.30530	378.76169	149.72951	125.82938	383.66241	79.27661	1065.81653	-710.89063	-164.89528	542.11609	-379.82690	-5.13828	538.72101	-388.42575	-117.51076	615.14221	561.70306	39.18439	605.65948	555.69342	
6582	65.810	-244.79091	56.26813	-229.03131	83.20923	-5.34564	-265.64114	-267.04401	38.98106	378.85242	149.48021	114.34705	385.58997	80.76974	1066.61902	-709.38086	-163.97408	542.58411	-379.37585	-3.30078	539.13330	-387.10931	-117.29403	614.57001	563.12646	39.49524	605.35571	556.75580	
6583	65.820	-244.34232	47.00726	-227.53082	83.38294	-5.54091	-265.73581	-267.10101	38.62967	378.91397	149.03444	102.68935	388.19284	81.85630	1067.12402	-707.69318	-162.80090	543.15125	-378.52536	-1.74122	539.48816	-386.07150	-117.20393	613.91614	563.66229	39.44561	604.85278	558.02966	
6584	65.830	-243.78136	37.12092	-225.90819	83.47604	-5.26302	-265.49170	-267.01569	38.39796	378.99683	148.47475	91.88387	390.92368	82.96901	1067.61829	-706.24707	-160.12231	542.69531	-377.23706	-0.52505	539.56592	-384.54990	-116.87586	613.36359	564.85565	39.63379	604.31427	559.26929	
6585	65.840	-243.08209	27.70437	-224.07983	83.67854	-5.12032	-265.32455	-266.71860	38.14826	379.06088	147.68916	81.65565	393.38620	84.24378	1068.00171	-704.91870	-158.23283	542.78986	-376.09854	0.77599	539.75464	-383.30902	-115.96689	612.91455	566.41211	40.23727	604.03027	560.70184	
6586	65.850	-242.20839	18.48793	-222.16833	83.79540	-4.92329	-265.07126	-266.70184	38.26443	379.07764	147.22565	71.64014	395.41745	85.75027	1068.35681	-703.28827	-157.67632	543.29059	-375.30743	2.12268	539.93976	-382.03510	-115.60471	612.78455	567.16315	40.81173	603.53027	562.17419	
6587	65.860	-241.16925	9.75117	-219.73102	83.99309	-4.76952	-264.87180	-267.83905	39.05758	378.90973	147.44446	62.37126	397.15811	87.78967	1068.51599	-701.72485	-156.68221	543.83087	-374.24506	4.04944	540.17712	-380.99326	-114.95645	612.33392	568.45319	41.53272	603.08051	563.56195	
6588	65.870	-240.25682	2.74437	-217.93010	84.10519	-4.73006	-264.65814	-266.83505	38.08870	379.34052	148.94946	54.22210	398.31232	90.29076	1068.76135	-699.56598	-154.45377	543.88043	-372.64053	5.33991	540.49072	-379.58063	-114.12529	611.53296	570.24963	42.25359	602.47852	564.85358	
6589	65.880	-241.70657	4.25327	-221.45168	84.17393	-4.72679	-264.49023	-266.60455	37.64919	379.56482	150.03036	46.97859	398.90280	92.60111	1068.79651	-697.47211	-153.02744	544.30835	-371.19861	6.69099	540.69720	-378.23282	-113.93609	610.94653	571.19238	42.68691	601.54559	566.54431	
6590	65.890	-241.67180	1.53573	-219.65074	84.45670	-4.60093	-264.26999	-266.39630	37.20498	379.68411	150.99133	45.22456	397.42651	95.03856	1069.09473	-695.47150	-151.69415	545.01727	-369.89832	8.15561	541.21136	-376.52222	-112.82991	610.13849	572.72827	43.66493	600.61633	568.07367	
6591	65.900	-242.01115	3.14640	-220.66795	84.46687	-4.34813	-264.24652	-267.37967	38.10571	379.78094	151.39767	42.58884	397.36249	97.78883	1070.01379	-693.16229	-150.64230	546.18134	-368.66336	9.99824	542.21368	-375.01523	-112.25878	610.17450	573.84174	44.46036	600.50769	570.02509	
6592	65.910	-241.12112	3.54792	-219.23579	84.78622	-3.93176	-263.91727	-266.33987	37.97265	379.73834	151.77937	41.86779	397.17828	100.55569	1071.53638	-690.56769	-149.12730	546.92236	-367.12497	11.42842	542.84003	-373.34348	-111.12878	610.81311	575.66669	44.96947	601.32117	571.51563	
6593	65.920	-240.42873	2.94117	-218.45973	86.07074	-0.36691	-264.04965	-264.48816	40.65450	379.67374	152.17764	41.50463	398.83160	103.47460	1073.17078	-688.16461	-147.81755	547.99103	-365.68875	12.68328	543.39856	-371.81406	-110.63286	611.42731	577.03613	45.72986	601.82227	573.08862	
6594	65.930	-240.58318	3.17598	-218.70631	84.97803	4.04118	-261.23941	-261.09103	44.32467	381.07379	151.69724	40.29461	398.80527	106.58236	1075.16760	-686.13843	-146.67313	549.37439	-364.84726	14.49724	544.39655	-370.36377	-110.09487	611.17053	578.13531	46.19373	601.33405	574.46838	
6595	65.940	-240.44725	3.62140	-218.90576	84.16562	8.91953	-257.09421	-255.89578	47.83266	384.90134	151.84515	40.40616	398.43066	109.55803	1076.64771	-684.38556	-144.21602	550.08374	-363.55981	15.89142	545.25226	-369.39392	-109.67374	610.73590	579.95685	46.73988	600.76599	575.77435	
6596	65.950	-240.34032	3.09215	-218.86475	81.85354	19.64824	-255.35643	-252.12846	57.68327	385.12341	152.09352	39.79198	399.64035	112.21965	1077.86829	-682.62152	-143.48341	550.80261	-362.95346	17.16662	545.79724	-368.34149	-109.67841	610.17004	580.44226	47.25762	600.26160	576.99628	
6597	65.960	-240.43080	3.29902	-219.08838	82.73893	29.22194	-252.90134	-249.29749	67.73688	385.08868	152.04279	39.59082	399.09277	114.68420	1078.71973	-680.88464	-141.64870	550.88824	-362.01007	18.22291	546.10455	-367.65182	-109.10176	609.57642	581.29156	47.84058	599.66431	577.89392	
